# Blender v3.0.0 OBJ File: 'RPGGame_Environ.blend'
# www.blender.org
mtllib rock_column_3x1.mtl
g rock_column_3x1_Cube.001
v 3.574843 -0.498878 -1.551368
v 3.318986 -1.365112 -1.378297
v -3.165937 -1.165937 -1.165937
v -3.367941 -1.367941 1.367941
v 3.192695 6.280281 1.266358
v -3.246340 6.191638 1.200526
v -3.161373 3.688759 1.186076
v -1.492897 -1.225170 -1.294142
v -0.796364 0.173648 1.209128
v -0.015617 -1.188980 1.288144
v 0.000000 2.000000 -1.606133
v 3.499174 -1.454514 -0.379972
v -2.012500 -0.141055 1.247159
v -2.519586 6.385798 1.262971
v 2.969151 -1.166084 1.069515
v 2.144885 -0.113194 -1.599551
v 2.377210 2.425862 -1.406365
v 1.390861 4.997537 -1.417766
v 1.459438 -1.138541 -1.107901
v -3.273455 -0.594841 -1.268734
v -2.517939 0.189838 1.521874
v 2.912037 0.291893 0.895411
v -3.467927 -0.515969 -0.509421
v -3.165580 6.195480 -1.201995
v 2.369258 4.771830 -1.198169
v -3.309865 1.593137 -0.526838
v -3.007123 2.248008 0.971623
v -2.193226 3.567644 1.266641
v 1.000000 0.000000 1.371359
v -1.000000 -1.098926 1.098926
v -0.281306 0.639520 -1.312399
v 0.577285 6.135675 1.124564
v 0.213257 6.176392 -1.162664
v -1.180023 2.023460 -1.293170
v 1.049366 3.946555 1.303509
v 0.187638 -0.506798 -1.323781
v -0.808992 -1.162289 0.129725
v 0.063096 -0.580121 1.420326
v -3.359194 0.325353 1.396502
v -3.205649 0.482647 -1.197671
v 3.124977 2.061151 1.090587
v 3.337268 1.300135 -1.313033
v -0.131854 1.853649 1.381077
v 3.098858 3.658311 1.067925
v -3.479109 2.927994 -1.399771
v 3.124202 3.683048 -1.148632
v -0.218725 4.024243 -1.027481
v 3.377700 5.000000 1.377700
v 3.118482 6.044391 -1.065410
v -3.114863 4.283649 -1.139468
v 0.000000 5.000001 -1.300000
v 0.825924 5.007768 1.130565
v -3.248330 -1.252955 -0.227422
v -3.338533 -0.407691 0.177586
v -3.301877 6.318829 0.461084
v 3.474247 1.383469 -0.485653
v 3.364533 3.448198 -0.450225
v -3.218067 3.530837 0.136549
v -2.982966 2.774456 0.295101
v 3.656871 4.992864 0.009537
v 3.818002 -0.373700 -0.479069
v 0.271892 -1.140982 -0.150596
v -1.442327 6.229776 1.312402
v -1.125294 2.381010 1.480986
v -0.976277 4.051448 1.644569
v -2.364104 -1.328291 1.350078
v -2.125061 6.405282 -1.389060
v -2.389384 1.528348 -1.162512
v -2.287838 4.079151 -1.129963
v -2.021099 6.645222 -0.514173
v -2.253863 3.056368 -1.399916
v -2.297564 -1.483611 0.532768
v -1.881001 5.141585 -1.334638
v -1.537470 1.504040 1.241610
v 1.311082 2.073833 -1.376068
v 1.000000 4.000000 -1.211678
v 2.451318 -0.284174 0.856274
v 1.548577 6.212874 -0.342945
v 2.454417 1.063517 -1.398070
v 2.408382 -1.630687 -0.000796
v 2.364644 4.867469 1.390778
v 3.425378 6.452127 0.283421
v 1.316337 1.406789 1.619082
v 2.545748 2.307167 1.168884
v -1.727118 -0.439198 -1.723406
v -2.287203 6.676997 0.410128
v 2.068382 5.961151 -0.959545
vt 0.523477 0.106314
vt 0.589742 0.000000
vt 0.625000 0.167392
vt 0.496074 0.187500
vt 0.625000 0.250308
vt 0.500000 0.250446
vt 0.528468 0.561967
vt 0.375158 0.751031
vt 0.375000 0.576769
vt 0.375000 0.420434
vt 0.596912 0.448218
vt 0.375000 0.498846
vt 0.875000 0.682534
vt 0.827444 0.684836
vt 0.813906 0.563062
vt 0.625000 0.000000
vt 0.625000 0.000902
vt 0.625000 0.116078
vt 0.625000 0.067466
vt 0.625000 0.589926
vt 0.625000 0.626406
vt 0.625000 0.739949
vt 0.625000 0.366799
vt 0.625000 0.406250
vt 0.625000 0.406250
vt 0.625000 0.949890
vt 0.625000 0.906250
vt 0.625000 0.913004
vt 0.625000 0.089780
vt 0.625000 0.500000
vt 0.625527 0.652280
vt 0.625000 0.576480
vt 0.625000 0.247528
vt 0.625000 0.789661
vt 0.625000 0.787043
vt 0.549973 0.782586
vt 0.625000 0.835070
vt 0.625000 0.906250
vt 0.625000 0.923998
vt 0.625000 0.849782
vt 0.625000 0.875000
vt 0.736866 0.748142
vt 0.626961 0.750000
vt 0.625000 0.367726
vt 0.500000 0.380835
vt 0.525966 0.318634
vt 0.625000 0.375000
vt 0.625000 0.389172
vt 0.625000 0.419480
vt 0.625000 0.296719
vt 0.625000 0.297643
vt 0.625000 0.744208
vt 0.625000 0.733538
vt 0.875000 0.500468
vt 0.819939 0.500000
vt 0.625000 0.465457
vt 0.201310 0.500000
vt 0.219091 0.657830
vt 0.124692 0.602833
vt 0.170627 0.684597
vt 0.625000 0.343750
vt 0.625000 0.375000
vt 0.375000 0.250000
vt 0.375000 0.326310
vt 0.625000 0.298414
vt 0.625000 0.316218
vt 0.600375 0.968750
vt 0.625000 0.996118
vt 0.589742 1.000000
vt 0.844143 0.750000
vt 0.781250 0.750000
vt 0.684026 0.502444
vt 0.625000 0.849234
vt 0.625000 0.500000
vt 0.625000 0.468750
vt 0.336983 0.633609
vt 0.249577 0.750000
vt 0.375000 1.000000
vt 0.375000 0.960022
vt 0.589637 0.937500
vt 0.375000 0.147167
vt 0.875000 0.750000
vt 0.501005 0.500000
vt 0.625000 0.751961
vt 0.625000 0.750000
vt 0.625000 0.450454
vt 0.625000 0.861888
vt 0.625000 0.000000
vt 0.625000 0.500000
vt 0.625000 0.250000
vt 0.625000 0.249532
vt 0.625000 0.305061
vt 0.602373 0.899369
vt 0.218750 0.750000
vt 0.164978 0.750000
vt 0.699812 0.581589
vt 0.500000 0.872936
vt 0.375000 0.875423
vt 0.376793 0.752666
vt 0.625000 0.843750
vt 0.625000 0.439844
vt 0.256349 0.611023
vt 0.740406 0.511436
vt 0.375000 0.000000
vt 0.295434 0.500000
vt 0.373846 0.500000
vt 0.125000 0.500000
vt 0.125000 0.750000
vt 0.625000 1.000000
vt 0.625000 1.000000
vt 0.375000 0.906250
vt 0.625000 0.969143
vn -0.9998 0.0069 -0.0211
vn -0.9639 0.0775 -0.2549
vn 0.8982 -0.2306 0.3743
vn -0.1750 -0.3281 -0.9283
vn -0.3358 0.9331 -0.1288
vn -0.9977 -0.0342 0.0590
vn -0.9969 -0.0379 0.0684
vn 0.9503 -0.2392 0.1994
vn -0.1480 0.0603 -0.9871
vn -0.3228 0.0748 0.9435
vn -0.9561 -0.2776 0.0934
vn 0.9404 0.2007 -0.2746
vn 0.9850 0.0495 0.1655
vn -0.9820 0.0750 0.1731
vn -0.9617 0.0699 -0.2651
vn -0.9377 -0.2384 0.2529
vn 0.3181 -0.0595 0.9462
vn 0.4199 -0.1238 0.8991
vn -0.3124 -0.1107 0.9435
vn 0.1595 -0.1103 0.9810
vn -0.0343 -0.2481 0.9681
vn -0.0630 0.9855 0.1574
vn 0.2066 0.0942 -0.9739
vn -0.0834 0.1305 -0.9879
vn 0.0161 -0.1549 -0.9878
vn 0.9778 0.0189 0.2085
vn -0.2151 0.2001 -0.9559
vn 0.8586 0.1698 0.4837
vn 0.9511 -0.1446 0.2729
vn -0.2321 0.9447 -0.2315
vn -0.0592 0.1836 -0.9812
vn 0.0330 -0.9991 0.0283
vn 0.0914 -0.9154 -0.3921
vn -0.0894 -0.0442 -0.9950
vn -0.2562 -0.1531 -0.9544
vn -0.2442 0.2420 -0.9390
vn -0.0817 -0.1914 -0.9781
vn 0.0430 -0.2048 -0.9778
vn 0.0267 0.1111 -0.9934
vn -0.0532 0.2461 0.9678
vn -0.1065 0.2331 0.9666
vn -0.2199 -0.0817 0.9721
vn 0.1186 0.9294 0.3496
vn -0.1028 0.9584 -0.2663
vn -0.1541 0.1272 0.9798
vn 0.1160 0.0353 -0.9926
vn -0.2167 0.1074 0.9703
vn 0.0675 -0.1983 -0.9778
vn -0.1308 -0.0437 -0.9905
vn 0.0351 -0.9233 0.3824
vn -0.1407 -0.9873 0.0736
vn -0.0614 -0.0649 0.9960
vn 0.4485 -0.0555 0.8921
vn -0.9465 -0.2825 -0.1557
vn -0.9558 -0.2036 0.2121
vn -0.2967 0.9312 0.2117
vn 0.2457 -0.9296 0.2748
vn 0.8517 0.0949 0.5154
vn -0.0184 -0.1907 -0.9815
vn 0.9663 0.1339 0.2198
vn -0.1511 -0.0100 -0.9885
vn 0.9503 -0.2426 0.1952
vn 0.1499 0.2867 -0.9462
vn 0.1500 0.1326 0.9797
vn 0.1726 0.1937 0.9657
vn 0.9128 -0.0102 -0.4083
vn -0.9903 -0.0903 -0.1056
vn 0.9623 0.1711 -0.2113
vn 0.9694 0.0808 -0.2317
vn 0.0755 -0.1206 0.9898
vn -0.9937 -0.1090 0.0260
vn -0.9560 0.0657 0.2858
vn -0.9667 0.2468 0.0674
vn 0.1408 0.0163 0.9899
vn -0.0942 -0.0729 -0.9929
vn 0.0921 -0.0151 0.9956
vn -0.2704 -0.0699 0.9602
vn 0.0328 -0.0061 0.9994
vn -0.0813 -0.0696 0.9943
vn 0.2204 -0.9638 0.1498
vn -0.2503 -0.0899 -0.9640
vn -0.1179 0.9927 -0.0258
vn 0.1695 -0.4330 -0.8853
vn -0.0996 -0.9940 0.0453
vn 0.1380 0.0943 0.9859
vn -0.1146 -0.2006 -0.9729
vn 0.2557 -0.3365 0.9063
vn -0.0695 0.1949 0.9784
vn 0.0125 0.2159 -0.9763
vn 0.1414 0.3423 -0.9289
vn 0.0431 -0.2332 0.9715
vn 0.0015 0.0869 0.9962
vn -0.9966 -0.0206 -0.0801
vn -0.9948 -0.0296 -0.0979
vn 0.9350 -0.3020 -0.1859
vn 0.1289 -0.0674 -0.9894
vn 0.0277 -0.9991 0.0308
vn 0.1401 0.9524 -0.2707
vn -0.0423 0.9988 0.0245
vn -0.3137 0.9447 -0.0958
vn -0.9987 -0.0245 -0.0444
vn -0.1568 -0.9454 -0.2859
vn 0.1210 -0.9865 -0.1102
vn -0.0284 -0.0103 -0.9995
vn 0.1809 -0.2432 -0.9530
vn 0.1137 0.1394 -0.9837
vn 0.1201 0.9537 -0.2758
vn 0.2130 0.9767 0.0277
vn -0.0426 -0.9945 -0.0959
vn 0.0547 0.2907 -0.9552
vn -0.0455 -0.1494 -0.9877
vn -0.1006 -0.9949 0.0089
vn -0.0693 -0.0027 0.9976
vn -0.2887 0.0811 -0.9540
vn -0.1939 -0.5141 -0.8355
vn -0.0025 -0.2685 -0.9633
vn 0.0939 -0.0247 -0.9953
vn 0.4143 -0.1166 0.9027
vn -0.1014 -0.1571 0.9824
vn -0.2492 -0.0869 0.9645
vn -0.0596 -0.0966 0.9935
vn 0.1887 0.9820 -0.0126
vn 0.0785 0.9205 0.3828
vn 0.1175 -0.0295 0.9926
vn 0.0662 0.1443 -0.9873
vn -0.0725 -0.9931 -0.0925
vn 0.0960 -0.0006 -0.9954
vn -0.0961 0.0729 0.9927
vn -0.9738 0.1990 0.1098
vn 0.0063 0.9277 -0.3734
vn -0.1389 -0.0900 0.9862
vn 0.2672 0.2541 -0.9295
vn -0.1121 0.1682 -0.9794
vn 0.1925 0.0860 -0.9775
vn 0.2857 -0.2281 0.9308
vn -0.1284 0.1090 0.9857
vn 0.2450 0.1449 0.9587
vn -0.0054 -0.0867 0.9962
vn 0.2372 0.0867 -0.9676
vn -0.0469 -0.4062 -0.9126
vn -0.1392 -0.7901 -0.5970
usemtl rock
s off
f 54/1/1 39/2/1 26/3/1
f 23/4/2 40/5/2 20/6/2
f 61/7/3 15/8/3 12/9/3
f 19/10/4 16/11/4 2/12/4
f 55/13/5 86/14/5 70/15/5
f 7/16/6 6/17/6 58/18/6
f 6/17/7 55/19/7 58/18/7
f 57/20/8 60/21/8 44/22/8
f 47/23/9 76/24/9 75/25/9
f 28/26/10 65/27/10 63/28/10
f 7/16/11 58/18/11 59/29/11
f 60/21/12 49/30/12 82/31/12
f 56/32/13 57/20/13 44/22/13
f 54/1/14 26/3/14 23/4/14
f 26/3/15 40/5/15 23/4/15
f 59/29/16 58/18/16 45/33/16
f 44/22/17 81/34/17 84/35/17
f 77/36/18 84/35/18 83/37/18
f 64/38/19 28/26/19 74/39/19
f 64/38/20 35/40/20 65/27/20
f 43/41/21 64/38/21 74/39/21
f 82/31/22 32/42/22 5/43/22
f 31/44/23 36/45/23 85/46/23
f 51/47/24 33/48/24 18/49/24
f 45/33/25 71/50/25 68/51/25
f 44/22/26 41/52/26 56/32/26
f 40/5/27 68/51/27 85/46/27
f 56/32/28 22/53/28 61/7/28
f 56/32/29 41/52/29 22/53/29
f 24/54/30 70/15/30 67/55/30
f 31/44/31 79/56/31 16/11/31
f 8/57/32 37/58/32 53/59/32
f 53/59/33 37/58/33 72/60/33
f 68/51/34 34/61/34 31/44/34
f 31/44/35 34/61/35 11/62/35
f 34/61/36 47/23/36 11/62/36
f 3/63/37 20/6/37 8/64/37
f 69/65/38 73/66/38 47/23/38
f 73/66/39 33/48/39 51/47/39
f 21/67/40 74/39/40 27/68/40
f 21/67/41 27/68/41 39/69/41
f 74/39/42 28/26/42 27/68/42
f 86/14/43 14/70/43 63/71/43
f 49/30/44 87/72/44 82/31/44
f 35/40/45 81/34/45 52/73/45
f 46/74/46 25/75/46 49/30/46
f 22/53/47 77/36/47 15/8/47
f 36/45/48 19/10/48 8/64/48
f 31/44/49 16/11/49 36/45/49
f 80/76/50 15/8/50 10/77/50
f 80/76/51 10/77/51 37/58/51
f 4/78/52 66/79/52 21/67/52 39/69/52
f 66/79/53 13/80/53 21/67/53
f 3/63/54 53/81/54 23/4/54 20/6/54
f 54/1/55 23/4/55 53/81/55
f 6/82/56 14/70/56 86/14/56 55/13/56
f 80/76/57 12/9/57 15/8/57
f 61/7/58 22/53/58 15/8/58
f 16/11/59 1/83/59 2/12/59
f 5/84/60 48/85/60 60/21/60 82/31/60
f 76/24/61 18/49/61 17/86/61 75/25/61
f 60/21/62 48/85/62 44/22/62
f 75/25/63 11/62/63 47/23/63
f 32/87/64 63/28/64 65/27/64 52/73/64
f 35/40/65 52/73/65 65/27/65
f 60/21/66 57/20/66 46/74/66 49/30/66
f 59/29/67 27/88/67 7/16/67
f 42/89/68 56/32/68 61/7/68 1/83/68
f 46/74/69 57/20/69 56/32/69 42/89/69
f 84/35/70 77/36/70 22/53/70 41/52/70
f 26/3/71 45/33/71 40/5/71
f 59/29/72 45/33/72 26/3/72
f 45/33/73 58/18/73 50/90/73
f 84/35/74 41/52/74 44/22/74
f 24/91/75 67/92/75 69/65/75 50/90/75
f 64/38/76 43/41/76 35/40/76
f 64/38/77 65/27/77 28/26/77
f 13/80/78 9/93/78 74/39/78
f 9/93/79 43/41/79 74/39/79
f 30/94/80 66/95/80 72/60/80 37/58/80
f 73/66/81 69/65/81 67/92/81
f 78/96/82 32/42/82 82/31/82
f 8/64/83 85/46/83 36/45/83
f 37/58/84 10/77/84 30/94/84
f 38/97/85 10/98/85 15/99/85 77/36/85
f 51/47/86 18/49/86 76/24/86 47/23/86
f 77/36/87 29/100/87 38/97/87
f 29/100/88 9/93/88 38/97/88
f 50/90/89 69/65/89 71/50/89 45/33/89
f 18/49/90 33/48/90 87/101/90
f 44/22/91 48/85/91 81/34/91
f 81/34/92 48/85/92 5/84/92
f 58/18/93 55/19/93 24/91/93
f 58/18/94 24/91/94 50/90/94
f 61/7/95 12/9/95 2/12/95 1/83/95
f 40/5/96 45/33/96 68/51/96
f 8/57/97 62/102/97 37/58/97
f 87/72/98 33/103/98 78/96/98
f 78/96/99 33/103/99 32/42/99
f 70/15/100 24/54/100 55/13/100
f 53/81/101 4/104/101 39/2/101 54/1/101
f 19/105/102 2/106/102 80/76/102
f 2/12/103 12/9/103 80/76/103
f 17/86/104 79/56/104 31/44/104 75/25/104
f 31/44/105 11/62/105 75/25/105
f 69/65/106 47/23/106 34/61/106 71/50/106
f 33/103/107 67/55/107 70/15/107
f 33/103/108 70/15/108 86/14/108
f 3/107/109 8/57/109 53/59/109
f 31/44/110 85/46/110 68/51/110
f 34/61/111 68/51/111 71/50/111
f 66/95/112 4/108/112 53/59/112 72/60/112
f 63/28/113 6/109/113 7/110/113 28/26/113
f 20/6/114 40/5/114 85/46/114
f 20/6/115 85/46/115 8/64/115
f 47/23/116 73/66/116 51/47/116
f 73/66/117 67/92/117 33/48/117
f 13/80/118 74/39/118 21/67/118
f 27/68/119 28/26/119 7/110/119
f 30/111/120 10/98/120 38/97/120 9/93/120
f 63/28/121 14/112/121 6/109/121
f 33/103/122 86/14/122 32/42/122
f 86/14/123 63/71/123 32/42/123
f 13/80/124 66/79/124 30/111/124 9/93/124
f 42/89/125 1/83/125 16/11/125 79/56/125
f 62/102/126 8/57/126 19/105/126 80/76/126
f 79/56/127 17/86/127 42/89/127
f 32/87/128 52/73/128 81/34/128 5/84/128
f 27/88/129 59/29/129 26/3/129 39/2/129
f 82/31/130 87/72/130 78/96/130
f 43/41/131 9/93/131 29/100/131 83/37/131
f 25/75/132 18/49/132 87/101/132
f 49/30/133 25/75/133 87/101/133
f 46/74/134 42/89/134 17/86/134 25/75/134
f 29/100/135 77/36/135 83/37/135
f 43/41/136 83/37/136 35/40/136
f 83/37/137 84/35/137 35/40/137
f 35/40/138 84/35/138 81/34/138
f 17/86/139 18/49/139 25/75/139
f 19/10/140 36/45/140 16/11/140
f 62/102/141 80/76/141 37/58/141
