# Blender v3.0.0 OBJ File: 'RPGGame_Environ.blend'
# www.blender.org
mtllib rock_column_3x1_small.mtl
g rock_column_3x1_small_Cube.002
v 3.145890 0.247624 -1.200655
v 2.977505 -0.136918 1.046024
v 3.173205 -1.173205 1.173205
v -3.173205 -1.173205 -1.173205
v -3.272934 2.251398 1.276539
v -0.380904 -0.111877 1.357308
v 0.690379 -1.235993 1.259331
v -0.033250 -0.360271 -0.972744
v 3.105941 -0.402417 -0.000173
v -0.183395 2.269989 0.052066
v 2.468133 -1.297351 1.301706
v 2.445677 -0.110427 -1.275477
v 3.110011 2.201732 -1.135498
v -3.206881 -1.238048 1.006865
v -2.508950 -1.095729 -0.980458
v -2.429446 0.920270 1.640545
v -3.571478 -0.519339 -0.188824
v 3.147425 -1.176168 -1.141959
v 0.965632 -0.145030 1.040347
v 0.000000 -0.500000 1.469597
v 3.149085 0.927305 1.259700
v -3.351011 -1.333230 -0.251358
v 3.038332 -0.565601 -1.058094
v 3.182260 -1.187242 0.303009
v 0.071516 -1.419422 0.441909
v -0.916349 2.145686 0.141969
v 0.915192 -1.369536 -0.219640
v -1.712985 -1.199339 -1.276436
v -1.972846 -1.214019 1.249266
v -2.427063 0.024127 -1.138682
v -2.413737 2.154872 -1.174847
v -2.120796 2.296944 -0.214644
v -2.108352 -1.514095 0.218031
v 1.019999 -0.337934 -1.219923
v 1.590828 -1.193659 -1.198009
v 2.387678 2.069391 1.095908
v 1.568694 2.235413 -0.340591
v 2.414886 -1.095413 -0.225522
v 2.260834 0.959463 -1.398539
v 2.490160 -1.445341 0.565715
v -1.027869 2.331040 -1.283527
v -0.759693 2.492762 -0.516209
v 3.114201 2.125824 1.034899
v 0.248786 2.398352 1.370898
v -3.338905 -0.348107 -1.323034
v -0.387064 0.982739 -1.256536
v 3.351968 2.396328 -0.440298
v -3.315040 2.291317 -1.104447
v -3.333186 1.032505 -0.393838
v 3.558219 1.041807 -0.100817
v -1.000000 2.085581 1.085581
v -2.536196 2.350687 1.307139
v 2.235533 2.337488 0.236262
v -0.078397 -1.078281 -1.044913
v 1.000000 1.000000 1.300000
vt 0.625000 0.000000
vt 0.625000 0.237774
vt 0.625000 0.152059
vt 0.375000 0.662728
vt 0.343136 0.687500
vt 0.339729 0.596733
vt 0.375000 0.428716
vt 0.498210 0.498075
vt 0.375000 0.502943
vt 0.821650 0.600540
vt 0.875000 0.512226
vt 0.843635 0.749698
vt 0.625000 0.500000
vt 0.625000 0.613259
vt 0.532092 0.250000
vt 0.625000 0.753355
vt 0.625000 0.743692
vt 0.625000 0.789095
vt 0.573593 0.296575
vt 0.534531 0.375000
vt 0.376515 0.317482
vt 0.588884 0.843750
vt 0.610721 0.891418
vt 0.500000 0.875000
vt 0.625000 0.279537
vt 0.192517 0.500000
vt 0.247867 0.504266
vt 0.184927 0.656812
vt 0.847184 0.500000
vt 0.303716 0.500000
vt 0.496214 0.155186
vt 0.375000 0.156445
vt 0.378057 0.011713
vt 0.781250 0.642859
vt 0.773771 0.562500
vt 0.125000 0.500000
vt 0.156250 0.507124
vt 0.125000 0.593555
vt 0.625000 0.362867
vt 0.625000 0.343060
vt 0.125000 0.738226
vt 0.626951 0.962264
vt 0.625000 1.000000
vt 0.378057 1.000000
vt 0.781250 0.750000
vt 0.625000 0.453790
vt 0.625000 0.497058
vt 0.627942 0.500000
vt 0.709132 0.591093
vt 0.625855 0.575105
vt 0.660907 0.656314
vt 0.375000 0.750000
vt 0.566784 0.753400
vt 0.375000 0.784432
vt 0.625000 0.843750
vt 0.625000 0.867220
vt 0.540344 0.406250
vt 0.625000 0.464286
vt 0.340568 0.750000
vt 0.271512 0.750000
vt 0.376004 0.940345
vt 0.561548 0.632884
vt 0.875000 0.750000
vt 0.625000 0.906250
vt 0.625000 0.968667
vt 0.664095 0.750000
vt 0.742220 0.750000
vt 0.750000 0.631495
vt 0.375000 0.853489
vt 0.375000 0.375000
vt 0.250769 0.673047
vt 0.184655 0.750000
vt 0.781940 0.500000
vt 0.375000 0.281250
vt 0.375000 0.250000
vt 0.281250 0.597549
vn -0.9995 0.0246 0.0181
vn 0.1769 -0.8938 -0.4121
vn 0.0340 0.1420 -0.9893
vn 0.0179 0.9994 -0.0304
vn 0.9568 -0.1681 -0.2373
vn -0.9999 0.0097 -0.0083
vn 0.0679 0.1858 0.9802
vn 0.0947 0.1658 -0.9816
vn 0.2142 0.4596 0.8619
vn 0.2051 -0.0179 -0.9786
vn 0.9524 0.0827 0.2934
vn 0.0980 -0.9787 -0.1802
vn 0.1330 0.9738 -0.1847
vn 0.0078 -0.9955 0.0940
vn -0.9545 -0.2685 0.1297
vn -0.0253 0.8867 0.4616
vn 0.1547 -0.9780 -0.1399
vn 0.0362 -0.1975 -0.9796
vn -0.0499 -0.0166 -0.9986
vn -0.0713 -0.0538 -0.9960
vn -0.1783 -0.9794 0.0945
vn -0.4941 -0.0763 0.8660
vn 0.1805 0.9804 0.0785
vn 0.2462 0.0368 -0.9685
vn -0.1004 0.9666 -0.2356
vn -0.0934 0.9933 -0.0678
vn 0.1519 0.1486 0.9772
vn 0.0634 0.9798 0.1899
vn 0.0574 -0.0198 0.9982
vn 0.0282 -0.4006 -0.9158
vn -0.0385 -0.9799 0.1959
vn -0.9983 -0.0230 0.0528
vn -0.1842 -0.2152 0.9590
vn 0.2889 -0.9520 0.1016
vn 0.9862 0.1586 0.0476
vn 0.9319 0.0383 -0.3608
vn 0.2023 -0.1950 -0.9597
vn -0.1343 0.9908 0.0190
vn 0.9539 -0.2998 -0.0147
vn 0.2076 0.2012 0.9573
vn -0.9754 0.1259 -0.1810
vn -0.2352 0.0537 0.9705
vn 0.0725 0.9946 0.0736
vn -0.0019 0.9954 -0.0962
vn -0.0095 0.2094 0.9778
vn 0.1331 0.0908 -0.9869
vn -0.0089 -0.9742 0.2253
vn 0.0132 -0.9606 0.2778
vn 0.9429 -0.2447 0.2260
vn 0.3767 0.0900 0.9219
vn -0.0651 0.0829 -0.9944
vn 0.9622 0.1943 0.1907
vn 0.9911 0.1241 -0.0481
vn 0.0657 -0.9711 -0.2294
vn 0.0306 0.9994 0.0170
vn 0.1248 0.9612 -0.2462
vn 0.0836 0.9537 0.2891
vn -0.0434 -0.0954 -0.9945
vn -0.1155 -0.9933 -0.0048
vn -0.9015 0.1898 0.3890
vn 0.0029 0.0905 -0.9959
vn -0.2157 -0.2560 -0.9423
vn -0.1512 0.9808 -0.1234
vn 0.2679 -0.1394 -0.9533
vn -0.0961 0.8897 0.4463
vn -0.2178 -0.9418 -0.2560
vn -0.0148 -0.9456 -0.3251
vn -0.9453 -0.2348 -0.2265
vn -0.0371 -0.9582 0.2837
vn -0.2157 0.9764 0.0038
vn -0.3586 -0.1048 -0.9276
vn -0.0702 0.2215 0.9726
vn 0.1249 0.9922 -0.0010
vn -0.0589 -0.1422 0.9881
vn -0.0980 -0.9696 -0.2242
vn 0.0506 -0.1696 0.9842
vn 0.1499 -0.0874 -0.9848
vn 0.0049 -0.2099 0.9777
vn 0.1794 -0.9824 -0.0527
vn -0.0483 0.9511 0.3052
vn 0.2182 -0.2220 0.9503
vn 0.0809 0.0845 0.9931
vn -0.1460 -0.0172 -0.9891
vn 0.0833 0.0300 -0.9961
vn -0.0064 -0.9965 -0.0833
vn 0.1623 -0.8966 -0.4120
vn -0.0224 -0.9717 0.2350
usemtl rock
s off
f 5/1/1 48/2/1 49/3/1
f 24/4/2 40/5/2 38/6/2
f 35/7/3 23/8/3 18/9/3
f 32/10/4 48/11/4 52/12/4
f 23/8/5 1/13/5 50/14/5
f 49/3/6 48/2/6 45/15/6
f 21/16/7 43/17/7 36/18/7
f 30/19/8 8/20/8 28/21/8
f 19/22/9 6/23/9 20/24/9
f 30/19/10 45/15/10 31/25/10
f 50/14/11 43/17/11 21/16/11
f 28/26/12 54/27/12 33/28/12
f 48/11/13 32/10/13 31/29/13
f 35/30/14 18/9/14 38/6/14
f 17/31/15 22/32/15 14/33/15
f 32/10/16 26/34/16 42/35/16
f 4/36/17 15/37/17 22/38/17
f 30/19/18 46/39/18 8/20/18
f 30/19/19 31/25/19 46/39/19
f 46/39/20 31/25/20 41/40/20
f 33/28/21 14/41/21 22/38/21
f 16/42/22 5/43/22 14/44/22
f 52/12/23 51/45/23 26/34/23
f 39/46/24 13/47/24 1/13/24
f 13/48/25 37/49/25 47/50/25
f 47/50/26 37/49/26 53/51/26
f 3/52/27 2/53/27 11/54/27
f 53/51/28 43/17/28 47/50/28
f 55/55/29 44/56/29 6/23/29
f 34/57/30 12/58/30 23/8/30
f 40/5/31 11/59/31 7/60/31
f 14/33/32 5/1/32 49/3/32
f 29/61/33 16/42/33 14/44/33
f 3/52/34 11/59/34 40/5/34 24/4/34
f 2/53/35 3/52/35 24/4/35 9/62/35
f 13/47/36 47/50/36 50/14/36 1/13/36
f 23/8/37 12/58/37 1/13/37
f 52/12/38 48/11/38 5/63/38
f 9/62/39 23/8/39 50/14/39
f 51/64/40 52/65/40 16/42/40 6/23/40
f 17/31/41 49/3/41 45/15/41
f 6/23/42 44/56/42 51/64/42
f 36/66/43 53/51/43 37/49/43 44/67/43
f 37/49/44 10/68/44 44/67/44
f 7/69/45 11/54/45 2/53/45 19/22/45
f 28/21/46 8/20/46 54/70/46
f 25/71/47 7/60/47 29/72/47
f 33/28/48 25/71/48 29/72/48
f 2/53/49 9/62/49 50/14/49 21/16/49
f 7/69/50 19/22/50 20/24/50
f 45/15/51 48/2/51 31/25/51
f 50/14/52 47/50/52 43/17/52
f 24/4/53 18/9/53 23/8/53 9/62/53
f 33/28/54 54/27/54 25/71/54
f 13/48/55 41/73/55 37/49/55
f 41/73/56 42/35/56 37/49/56
f 37/49/57 42/35/57 10/68/57
f 46/39/58 39/46/58 12/58/58 34/57/58
f 38/6/59 18/9/59 24/4/59
f 17/31/60 14/33/60 49/3/60
f 13/47/61 39/46/61 46/39/61 41/40/61
f 34/57/62 8/20/62 46/39/62
f 42/35/63 41/73/63 31/29/63 32/10/63
f 30/19/64 15/74/64 4/75/64 45/15/64
f 42/35/65 26/34/65 10/68/65
f 15/37/66 28/26/66 33/28/66
f 15/37/67 33/28/67 22/38/67
f 4/75/68 22/32/68 17/31/68 45/15/68
f 33/28/69 29/72/69 14/41/69
f 51/45/70 44/67/70 10/68/70 26/34/70
f 15/74/71 30/19/71 28/21/71
f 16/42/72 52/65/72 5/43/72
f 26/34/73 32/10/73 52/12/73
f 29/61/74 7/69/74 20/24/74 6/23/74
f 27/76/75 25/71/75 54/27/75 35/30/75
f 6/23/76 16/42/76 29/61/76
f 1/13/77 12/58/77 39/46/77
f 55/55/78 19/22/78 2/53/78 21/16/78
f 35/30/79 38/6/79 27/76/79
f 53/51/80 36/66/80 43/17/80
f 6/23/81 19/22/81 55/55/81
f 36/18/82 44/56/82 55/55/82 21/16/82
f 34/57/83 35/7/83 54/70/83 8/20/83
f 34/57/84 23/8/84 35/7/84
f 27/76/85 40/5/85 25/71/85
f 27/76/86 38/6/86 40/5/86
f 25/71/87 40/5/87 7/60/87
