# Blender v3.0.0 OBJ File: 'RPGGame_Items.blend'
# www.blender.org
mtllib item.sword.mtl
g sword_Cube.001
v 0.044194 -0.361036 0.000000
v 0.088388 -0.325000 0.000000
v -0.125000 -0.325000 0.022097
v 0.125000 -0.350000 -0.022097
v -0.125000 -0.350000 -0.022097
v 0.000000 -0.625000 0.044194
v 0.000000 -0.361036 0.044194
v -0.044194 -0.625000 0.000000
v -0.044194 -0.361036 0.000000
v 0.044194 -0.625000 0.000000
v 0.000000 -0.625000 -0.044194
v 0.000000 -0.361036 -0.044194
v 0.000000 -0.325000 0.044194
v -0.088388 -0.325000 0.000000
v 0.000000 -0.325000 -0.044194
v 0.000000 0.625000 0.000000
v 0.125000 -0.325000 0.022097
v 0.125000 -0.325000 -0.022097
v -0.125000 -0.325000 -0.022097
v 0.125000 -0.350000 0.022097
v -0.125000 -0.350000 0.022097
v 0.000000 -0.325000 0.056694
v 0.000000 -0.325000 -0.056694
v 0.000000 -0.375000 0.056694
v 0.000000 -0.375000 -0.056694
vt 0.375000 0.500000
vt 0.625000 0.500000
vt 0.625000 0.750000
vt 0.375000 0.750000
vt 0.625000 1.000000
vt 0.375000 1.000000
vt 0.375000 0.000000
vt 0.625000 0.000000
vt 0.625000 0.250000
vt 0.375000 0.250000
vt 0.125000 0.500000
vt 0.125000 0.750000
vt 0.000000 0.000000
vt 0.000000 0.000000
vt 0.000000 0.000000
vt 0.000000 0.000000
vt 0.000000 0.000000
vt 0.000000 0.000000
vt 0.000000 0.000000
vt 0.000000 0.000000
vt 0.000000 0.000000
vt 0.000000 0.000000
vt 0.000000 0.000000
vt 0.000000 0.000000
vt 0.875000 0.500000
vt 0.875000 0.750000
vt 0.875000 0.500000
vt 0.625000 0.500000
vt 0.625000 0.500000
vt 0.625000 0.750000
vt 0.875000 0.750000
vt 0.625000 0.750000
vn 0.7071 0.0000 -0.7071
vn 0.7071 0.0000 0.7071
vn -0.7071 0.0000 0.7071
vn -0.7071 0.0000 -0.7071
vn 0.0000 -1.0000 0.0000
vn 0.1961 -0.9806 0.0000
vn -0.2667 0.0000 0.9638
vn -1.0000 0.0000 0.0000
vn 0.2667 0.0000 -0.9638
vn 1.0000 0.0000 0.0000
vn -0.2667 0.0000 -0.9638
vn 0.0000 1.0000 0.0000
vn -0.1961 -0.9806 0.0000
vn 0.2667 0.0000 0.9638
vn -0.4468 0.0416 0.8937
vn -0.4468 0.0416 -0.8937
vn 0.4468 0.0416 0.8937
vn 0.4468 0.0416 -0.8937
usemtl wood
s off
f 11/1/1 12/2/1 1/3/1 10/4/1
f 10/4/2 1/3/2 7/5/2 6/6/2
f 6/7/3 7/8/3 9/9/3 8/10/3
f 8/10/4 9/9/4 12/2/4 11/1/4
f 8/11/5 11/1/5 10/4/5 6/12/5
usemtl steel
f 24/13/6 25/14/6 4/15/6 20/16/6
f 22/17/7 3/18/7 21/19/7 24/13/7
f 3/18/8 19/20/8 5/21/8 21/19/8
f 23/22/9 18/23/9 4/15/9 25/14/9
f 18/23/10 17/24/10 20/16/10 4/15/10
f 19/20/11 23/22/11 25/14/11 5/21/11
f 3/18/12 22/17/12 23/22/12 19/20/12
f 21/19/13 5/21/13 25/14/13 24/13/13
f 22/17/12 17/24/12 18/23/12 23/22/12
f 17/24/14 22/17/14 24/13/14 20/16/14
usemtl steel_polished
f 14/25/15 13/26/15 16/27/15
f 15/28/16 14/25/16 16/29/16
f 13/26/17 2/30/17 16/31/17
f 2/30/18 15/28/18 16/32/18
