# Blender v3.0.0 OBJ File: 'RPGGame_Items.blend'
# www.blender.org
mtllib item.goblin_mace.mtl
g goblin_mace_Cube.012
v 0.044194 0.512500 0.000000
v -0.150000 0.446875 0.022097
v -0.069194 0.425000 0.032097
v 0.069194 0.300000 -0.022097
v -0.069194 0.300000 -0.032097
v 0.000000 -0.512500 0.044194
v 0.000000 0.512500 0.044194
v -0.044194 -0.512500 0.000000
v -0.044194 0.512500 0.000000
v 0.044194 -0.512500 0.000000
v 0.000000 -0.512500 -0.044194
v 0.000000 0.512500 -0.044194
v 0.069194 0.425000 0.022097
v 0.069194 0.425000 -0.022097
v -0.069194 0.425000 -0.032097
v 0.069194 0.300000 0.022097
v -0.069194 0.300000 0.032097
v 0.000000 0.425000 0.056694
v 0.000000 0.425000 -0.056694
v 0.000000 0.300000 0.056694
v 0.000000 0.300000 -0.056694
v -0.150000 0.278125 -0.022097
v -0.150000 0.446875 -0.022097
v -0.150000 0.278125 0.022097
v -0.102501 0.444674 0.025801
v -0.102501 0.444674 -0.025801
v -0.102501 0.280326 0.025801
v -0.102501 0.280326 -0.025801
v -0.186266 0.410917 0.022097
v -0.186266 0.314083 0.022097
v -0.161266 0.410917 -0.022097
v -0.161266 0.314083 -0.022097
v -0.200000 0.362500 0.022097
v -0.175000 0.362500 -0.022097
vt 0.375000 0.500000
vt 0.625000 0.500000
vt 0.625000 0.750000
vt 0.375000 0.750000
vt 0.625000 1.000000
vt 0.375000 1.000000
vt 0.375000 0.000000
vt 0.625000 0.000000
vt 0.625000 0.250000
vt 0.375000 0.250000
vt 0.125000 0.500000
vt 0.125000 0.750000
vt 0.000000 0.000000
vt 0.000000 0.000000
vt 0.000000 0.000000
vt 0.000000 0.000000
vt 0.000000 0.000000
vt 0.000000 0.000000
vt 0.000000 0.000000
vt 0.000000 0.000000
vt 0.000000 0.000000
vt 0.000000 0.000000
vt 0.000000 0.000000
vt 0.000000 0.000000
vt 0.000000 0.000000
vt 0.000000 0.000000
vt 0.000000 0.000000
vt 0.000000 0.000000
vt 0.000000 0.000000
vt 0.000000 0.000000
vt 0.000000 0.000000
vt 0.000000 0.000000
vt 0.000000 0.000000
vt 0.000000 0.000000
vt 0.000000 0.000000
vt 0.000000 0.000000
vt 0.000000 0.000000
vt 0.000000 0.000000
vn 0.7071 0.0000 -0.7071
vn 0.7071 0.0000 0.7071
vn -0.7071 0.0000 0.7071
vn -0.7071 0.0000 -0.7071
vn 0.0000 -1.0000 0.0000
vn 0.0000 1.0000 0.0000
vn -0.8119 -0.5367 -0.2297
vn -0.8450 0.2397 -0.4780
vn -0.3349 0.0000 0.9422
vn -0.1857 0.0000 -0.9826
vn -0.1103 -0.0000 -0.9939
vn 0.4472 0.0000 -0.8944
vn 1.0000 0.0000 0.0000
vn -0.3349 0.0000 -0.9422
vn 0.2235 0.9747 0.0000
vn 0.2235 -0.9747 0.0000
vn 0.4472 0.0000 0.8944
vn 0.3035 0.9528 0.0000
vn -0.1857 0.0000 0.9826
vn -0.1011 0.0000 0.9949
vn -0.0460 0.0000 0.9989
vn -0.8119 0.5367 -0.2297
vn 0.3035 -0.9528 0.0000
vn 0.0463 -0.9989 0.0000
vn -0.0611 -0.0000 -0.9981
vn 0.0463 0.9989 0.0000
vn -0.8450 -0.2397 -0.4780
usemtl wood
s 1
f 11/1/1 12/2/1 1/3/1 10/4/1
f 10/4/2 1/3/2 7/5/2 6/6/2
f 6/7/3 7/8/3 9/9/3 8/10/3
f 8/10/4 9/9/4 12/2/4 11/1/4
f 8/11/5 11/1/5 10/4/5 6/12/5
f 7/5/6 1/3/6 12/2/6 9/9/6
usemtl steel
f 32/13/7 22/14/7 24/15/7 30/16/7
f 29/17/8 31/18/8 34/19/8 33/20/8
f 20/21/5 21/22/5 4/23/5 16/24/5
f 18/25/9 3/26/9 17/27/9 20/21/9
f 15/28/10 5/29/10 28/30/11 26/31/11
f 19/32/12 14/33/12 4/23/12 21/22/12
f 14/33/13 13/34/13 16/24/13 4/23/13
f 15/28/14 19/32/14 21/22/14 5/29/14
f 3/26/15 18/25/6 19/32/6 15/28/15
f 17/27/16 5/29/16 21/22/5 20/21/5
f 18/25/6 13/34/6 14/33/6 19/32/6
f 13/34/17 18/25/17 20/21/17 16/24/17
f 3/26/15 15/28/15 26/31/18 25/35/18
f 17/27/19 3/26/19 25/35/20 27/36/20
f 25/35/20 2/37/21 29/17/21 33/20/21 30/16/21 24/15/21 27/36/20
f 23/38/22 31/18/22 29/17/22 2/37/22
f 5/29/16 17/27/16 27/36/23 28/30/23
f 28/30/23 27/36/23 24/15/24 22/14/24
f 26/31/11 28/30/11 22/14/25 32/13/25 34/19/25 31/18/25 23/38/25
f 26/31/18 23/38/26 2/37/26 25/35/18
f 30/16/27 33/20/27 34/19/27 32/13/27
